<svg width="280" height="56" viewBox="0 0 280 56" fill="none" xmlns="http://www.w3.org/2000/svg">
<path d="M14.4043 38.3331V12.4131H30.2943V15.3431H17.6043V23.6231H29.3843V26.4731H17.6043V35.4031H30.6743V38.3331H14.4043Z" fill="#10B1E7" fill-opacity="0.8"/>
<path d="M32.9941 38.3336L40.2441 28.3036L33.1841 19.2236H36.7541L42.3341 26.2836L47.6241 19.2236H51.0441L44.3941 28.1836L51.6841 38.3336H48.1141L42.3041 30.2436L36.4141 38.3336H32.9941Z" fill="#10B1E7" fill-opacity="0.8"/>
<path d="M54.8052 46.9928V23.6228C54.8052 22.7161 54.7419 21.3628 54.6152 19.5628L57.4252 19.1828L57.7652 21.2328C58.2719 20.7994 58.7986 20.4128 59.3452 20.0728C59.8919 19.7328 60.4852 19.4428 61.1252 19.2028C61.7719 18.9628 62.4652 18.8428 63.2052 18.8428C64.2386 18.8428 65.2186 19.0194 66.1452 19.3728C67.0719 19.7261 67.8819 20.2961 68.5752 21.0828C69.2752 21.8694 69.8286 22.8894 70.2352 24.1428C70.6352 25.3961 70.8352 26.9328 70.8352 28.7528C70.8352 30.6061 70.5652 32.1728 70.0252 33.4528C69.4786 34.7328 68.7686 35.7694 67.8952 36.5628C67.0219 37.3628 66.0319 37.9394 64.9252 38.2928C63.8252 38.6461 62.7052 38.8228 61.5652 38.8228C60.3519 38.8028 59.1119 38.6528 57.8452 38.3728V46.6128L54.8052 46.9928ZM61.5652 36.1628C62.6319 36.1628 63.5452 35.9728 64.3052 35.5928C65.0652 35.2128 65.6919 34.6894 66.1852 34.0228C66.6786 33.3494 67.0386 32.5761 67.2652 31.7028C67.4919 30.8294 67.6052 29.8994 67.6052 28.9128C67.6052 28.0261 67.5252 27.1394 67.3652 26.2528C67.1986 25.3661 66.9319 24.5728 66.5652 23.8728C66.1986 23.1794 65.7119 22.6094 65.1052 22.1628C64.4919 21.7228 63.7419 21.5028 62.8552 21.5028C62.2019 21.5028 61.5819 21.6228 60.9952 21.8628C60.4152 22.1028 59.8652 22.3928 59.3452 22.7328C58.8252 23.0728 58.3252 23.4594 57.8452 23.8928V35.5628C58.1252 35.6628 58.4352 35.7561 58.7752 35.8428C59.1152 35.9294 59.5186 36.0061 59.9852 36.0728C60.4586 36.1328 60.9852 36.1628 61.5652 36.1628Z" fill="#10B1E7" fill-opacity="0.8"/>
<path d="M77.4546 28.8728C77.4546 31.3261 78.0046 33.1561 79.1046 34.3628C80.2046 35.5628 81.6913 36.1628 83.5646 36.1628C85.4179 36.1628 86.8646 35.5694 87.9046 34.3828C88.9379 33.1894 89.4546 31.4028 89.4546 29.0228C89.4546 26.4894 88.9046 24.6028 87.8046 23.3628C86.7046 22.1228 85.2046 21.5028 83.3046 21.5028C81.4046 21.5028 79.9546 22.1161 78.9546 23.3428C77.9546 24.5694 77.4546 26.4128 77.4546 28.8728ZM74.2246 28.8328C74.2246 26.9061 74.5279 25.3028 75.1346 24.0228C75.7413 22.7428 76.5146 21.7194 77.4546 20.9528C78.3879 20.1794 79.3946 19.6328 80.4746 19.3128C81.5479 18.9994 82.5679 18.8428 83.5346 18.8428C84.4413 18.8428 85.4346 18.9861 86.5146 19.2728C87.5879 19.5661 88.5813 20.0861 89.4946 20.8328C90.4079 21.5794 91.1679 22.5794 91.7746 23.8328C92.3813 25.0861 92.6846 26.6761 92.6846 28.6028C92.6846 30.6028 92.3746 32.2628 91.7546 33.5828C91.1346 34.9028 90.3579 35.9494 89.4246 36.7228C88.4846 37.4894 87.4713 38.0328 86.3846 38.3528C85.2913 38.6661 84.2779 38.8228 83.3446 38.8228C82.3779 38.8228 81.3646 38.6728 80.3046 38.3728C79.2379 38.0661 78.2546 37.5394 77.3546 36.7928C76.4546 36.0461 75.7079 35.0261 75.1146 33.7328C74.5213 32.4394 74.2246 30.8061 74.2246 28.8328Z" fill="#10B1E7" fill-opacity="0.8"/>
<path d="M97.1334 38.3328V22.2928C97.1334 21.7128 97.07 20.8028 96.9434 19.5628L99.7534 19.1828L100.063 21.9528H100.093C100.553 21.3728 100.997 20.8662 101.423 20.4328C101.857 20.0062 102.307 19.6328 102.773 19.3128C103.247 18.9995 103.697 18.8428 104.123 18.8428C104.71 18.8162 105.52 18.8795 106.553 19.0328L105.873 21.9528C105.04 21.7995 104.457 21.7362 104.123 21.7628C103.697 21.7628 103.24 21.9662 102.753 22.3728C102.273 22.7795 101.857 23.2095 101.503 23.6628C101.05 24.2228 100.607 24.8562 100.173 25.5628V38.3328H97.1334Z" fill="#10B1E7" fill-opacity="0.8"/>
<path d="M111.304 13.9034L114.344 13.5234V19.2234H119.854V21.6934H114.344V31.8334C114.344 32.6734 114.364 33.3701 114.404 33.9234C114.444 34.4834 114.528 34.9268 114.654 35.2534C114.781 35.5868 114.958 35.8201 115.184 35.9534C115.411 36.0934 115.701 36.1634 116.054 36.1634C117.021 36.1434 118.138 35.7901 119.404 35.1034L120.314 37.4234C119.481 37.9768 118.701 38.3501 117.974 38.5434C117.254 38.7301 116.541 38.8234 115.834 38.8234C114.161 38.8234 112.988 38.3501 112.314 37.4034C111.641 36.4501 111.304 34.8734 111.304 32.6734V21.6934H107.814V19.2234H111.304V13.9034Z" fill="#10B1E7" fill-opacity="0.8"/>
<path d="M151.365 13.2532L150.675 16.0632C150.041 15.8632 149.371 15.6799 148.665 15.5132C147.951 15.3466 147.171 15.2066 146.325 15.0932C145.478 14.9799 144.585 14.9232 143.645 14.9232C142.125 14.9232 140.835 15.2532 139.775 15.9132C138.708 16.5732 137.838 17.4166 137.165 18.4432C136.498 19.4699 136.011 20.6166 135.705 21.8832C135.398 23.1499 135.245 24.4032 135.245 25.6432C135.245 27.2099 135.468 28.6332 135.915 29.9132C136.355 31.1932 136.961 32.2832 137.735 33.1832C138.508 34.0832 139.408 34.7732 140.435 35.2532C141.461 35.7332 142.545 35.9732 143.685 35.9732C144.751 35.9732 145.728 35.9166 146.615 35.8032C147.501 35.6899 148.261 35.5699 148.895 35.4432C149.628 35.2899 150.285 35.1132 150.865 34.9132L151.515 37.6132C150.828 37.8399 150.068 38.0432 149.235 38.2232C148.521 38.3699 147.698 38.5066 146.765 38.6332C145.825 38.7599 144.798 38.8232 143.685 38.8232C141.685 38.8232 139.931 38.4966 138.425 37.8432C136.918 37.1832 135.661 36.2632 134.655 35.0832C133.655 33.9032 132.901 32.5099 132.395 30.9032C131.888 29.2966 131.635 27.5299 131.635 25.6032C131.635 23.3966 131.941 21.4532 132.555 19.7732C133.161 18.0866 133.995 16.6732 135.055 15.5332C136.121 14.3932 137.388 13.5332 138.855 12.9532C140.328 12.3666 141.938 12.0732 143.685 12.0732C144.751 12.0732 145.745 12.1299 146.665 12.2432C147.591 12.3566 148.441 12.5032 149.215 12.6832C149.988 12.8632 150.705 13.0532 151.365 13.2532Z" fill="#10B1E7" fill-opacity="0.8"/>
<path d="M156.794 28.8728C156.794 31.3261 157.344 33.1561 158.444 34.3628C159.551 35.5628 161.041 36.1628 162.914 36.1628C164.761 36.1628 166.204 35.5694 167.244 34.3828C168.284 33.1894 168.804 31.4028 168.804 29.0228C168.804 26.4894 168.251 24.6028 167.144 23.3628C166.044 22.1228 164.544 21.5028 162.644 21.5028C160.744 21.5028 159.294 22.1161 158.294 23.3428C157.294 24.5694 156.794 26.4128 156.794 28.8728ZM153.564 28.8328C153.564 26.9061 153.868 25.3028 154.474 24.0228C155.081 22.7428 155.854 21.7194 156.794 20.9528C157.734 20.1794 158.741 19.6328 159.814 19.3128C160.894 18.9994 161.914 18.8428 162.874 18.8428C163.788 18.8428 164.781 18.9861 165.854 19.2728C166.934 19.5661 167.931 20.0861 168.844 20.8328C169.751 21.5794 170.511 22.5794 171.124 23.8328C171.731 25.0861 172.034 26.6761 172.034 28.6028C172.034 30.6028 171.724 32.2628 171.104 33.5828C170.484 34.9028 169.704 35.9494 168.764 36.7228C167.824 37.4894 166.811 38.0328 165.724 38.3528C164.638 38.6661 163.624 38.8228 162.684 38.8228C161.724 38.8228 160.711 38.6728 159.644 38.3728C158.578 38.0661 157.594 37.5394 156.694 36.7928C155.801 36.0461 155.054 35.0261 154.454 33.7328C153.861 32.4394 153.564 30.8061 153.564 28.8328Z" fill="#10B1E7" fill-opacity="0.8"/>
<path d="M176.475 38.3328V23.0228C176.502 22.4894 176.438 21.3361 176.285 19.5628L179.105 19.1828L179.515 21.6128C180.275 21.1061 181.028 20.6628 181.775 20.2828C182.528 19.9028 183.295 19.5661 184.075 19.2728C184.862 18.9861 185.622 18.8428 186.355 18.8428C187.395 18.8428 188.265 18.9628 188.965 19.2028C189.658 19.4428 190.222 19.8394 190.655 20.3928C191.082 20.9528 191.392 21.6894 191.585 22.6028C191.772 23.5161 191.865 24.6561 191.865 26.0228V38.3328H188.825V26.3628C188.825 25.6028 188.815 24.9261 188.795 24.3328C188.768 23.7328 188.658 23.2261 188.465 22.8128C188.278 22.3928 187.988 22.0694 187.595 21.8428C187.202 21.6161 186.652 21.5028 185.945 21.5028C185.285 21.5028 184.588 21.6461 183.855 21.9328C183.115 22.2261 182.392 22.5628 181.685 22.9428C180.978 23.3228 180.255 23.7661 179.515 24.2728V38.3328H176.475Z" fill="#10B1E7" fill-opacity="0.8"/>
<path d="M198.635 13.9034L201.675 13.5234V19.2234H207.185V21.6934H201.675V31.8334C201.675 32.6734 201.691 33.3701 201.725 33.9234C201.765 34.4834 201.848 34.9268 201.975 35.2534C202.101 35.5868 202.278 35.8201 202.505 35.9534C202.738 36.0934 203.031 36.1634 203.385 36.1634C204.345 36.1434 205.458 35.7901 206.725 35.1034L207.635 37.4234C206.801 37.9768 206.025 38.3501 205.305 38.5434C204.578 38.7301 203.861 38.8234 203.155 38.8234C201.481 38.8234 200.308 38.3501 199.635 37.4034C198.968 36.4501 198.635 34.8734 198.635 32.6734V21.6934H195.135V19.2234H198.635V13.9034Z" fill="#10B1E7" fill-opacity="0.8"/>
<path d="M221.695 33.8828V29.5528C221.188 29.5794 220.708 29.6061 220.255 29.6328C219.802 29.6594 219.352 29.6894 218.905 29.7228C218.465 29.7628 218.065 29.8094 217.705 29.8628C215.885 30.0894 214.595 30.4861 213.835 31.0528C213.075 31.6261 212.695 32.4428 212.695 33.5028C212.695 34.3894 212.965 35.0561 213.505 35.5028C214.052 35.9428 214.768 36.1628 215.655 36.1628C216.875 36.1628 217.958 35.9561 218.905 35.5428C219.858 35.1228 220.788 34.5694 221.695 33.8828ZM222.045 38.6328L221.665 36.5428C220.472 37.2294 219.362 37.7828 218.335 38.2028C217.308 38.6161 216.202 38.8228 215.015 38.8228C213.315 38.8228 211.965 38.4128 210.965 37.5928C209.965 36.7661 209.465 35.4028 209.465 33.5028C209.465 32.5161 209.718 31.6561 210.225 30.9228C210.732 30.1894 211.395 29.5761 212.215 29.0828C213.042 28.5894 213.975 28.2028 215.015 27.9228C216.048 27.6428 217.112 27.4661 218.205 27.3928C218.658 27.3394 219.252 27.2928 219.985 27.2528C220.725 27.2194 221.295 27.1894 221.695 27.1628C221.695 26.2761 221.672 25.4828 221.625 24.7828C221.572 24.0894 221.418 23.4961 221.165 23.0028C220.912 22.5094 220.538 22.1361 220.045 21.8828C219.552 21.6294 218.848 21.5028 217.935 21.5028C217.202 21.5028 216.492 21.5461 215.805 21.6328C215.125 21.7194 214.518 21.8128 213.985 21.9128C213.352 22.0394 212.768 22.1794 212.235 22.3328L211.625 19.7128C212.258 19.5594 212.945 19.4194 213.685 19.2928C214.318 19.1661 215.052 19.0594 215.885 18.9728C216.718 18.8861 217.618 18.8428 218.585 18.8428C219.878 18.8428 220.922 19.0328 221.715 19.4128C222.515 19.7928 223.135 20.3061 223.575 20.9528C224.022 21.5928 224.328 22.3261 224.495 23.1528C224.655 23.9728 224.735 24.8394 224.735 25.7528V34.8728C224.735 35.2261 224.742 35.5994 224.755 35.9928C224.768 36.3861 224.795 36.7728 224.835 37.1528C224.875 37.5328 224.918 37.9261 224.965 38.3328L222.045 38.6328Z" fill="#10B1E7" fill-opacity="0.8"/>
<path d="M242.564 19.4428L241.954 21.9928C241.521 21.8928 240.924 21.7861 240.164 21.6728C239.404 21.5594 238.631 21.5028 237.844 21.5028C236.704 21.5028 235.774 21.7294 235.054 22.1828C234.334 22.6361 233.771 23.2261 233.364 23.9528C232.958 24.6728 232.678 25.4694 232.524 26.3428C232.378 27.2161 232.304 28.0728 232.304 28.9128C232.304 30.1994 232.468 31.3061 232.794 32.2328C233.121 33.1594 233.558 33.9128 234.104 34.4928C234.651 35.0794 235.278 35.5061 235.984 35.7728C236.698 36.0328 237.444 36.1628 238.224 36.1628C238.758 36.1628 239.271 36.1328 239.764 36.0728C240.258 36.0061 240.714 35.9294 241.134 35.8428C241.554 35.7561 241.954 35.6494 242.334 35.5228L242.944 38.0628C242.411 38.2161 241.914 38.3428 241.454 38.4428C241.001 38.5494 240.464 38.6394 239.844 38.7128C239.224 38.7861 238.558 38.8228 237.844 38.8228C236.451 38.8228 235.211 38.6461 234.124 38.2928C233.038 37.9394 232.121 37.3694 231.374 36.5828C230.621 35.7961 230.048 34.7694 229.654 33.5028C229.268 32.2361 229.074 30.6928 229.074 28.8728C229.074 27.0994 229.321 25.5728 229.814 24.2928C230.308 23.0128 230.958 21.9728 231.764 21.1728C232.578 20.3794 233.511 19.7928 234.564 19.4128C235.611 19.0328 236.704 18.8428 237.844 18.8428C238.458 18.8428 239.048 18.8728 239.614 18.9328C240.188 18.9994 240.688 19.0694 241.114 19.1428C241.621 19.2428 242.104 19.3428 242.564 19.4428Z" fill="#10B1E7" fill-opacity="0.8"/>
<path d="M248.105 13.9034L251.145 13.5234V19.2234H256.655V21.6934H251.145V31.8334C251.145 32.6734 251.165 33.3701 251.205 33.9234C251.245 34.4834 251.329 34.9268 251.455 35.2534C251.582 35.5868 251.759 35.8201 251.985 35.9534C252.212 36.0934 252.502 36.1634 252.855 36.1634C253.822 36.1434 254.939 35.7901 256.205 35.1034L257.115 37.4234C256.282 37.9768 255.502 38.3501 254.775 38.5434C254.055 38.7301 253.342 38.8234 252.635 38.8234C250.962 38.8234 249.789 38.3501 249.115 37.4034C248.442 36.4501 248.105 34.8734 248.105 32.6734V21.6934H244.615V19.2234H248.105V13.9034Z" fill="#10B1E7" fill-opacity="0.8"/>
<path d="M271.404 19.6328L270.874 22.3328C269.807 22.0061 268.86 21.7861 268.034 21.6728C267.214 21.5594 266.46 21.5028 265.774 21.5028C264.887 21.5028 264.147 21.7161 263.554 22.1428C262.96 22.5761 262.664 23.1328 262.664 23.8128C262.69 24.4261 262.957 24.9461 263.464 25.3728C263.97 25.8061 264.557 26.1928 265.224 26.5328C265.897 26.8728 266.644 27.2461 267.464 27.6528C268.29 28.0594 269.064 28.5161 269.784 29.0228C270.51 29.5294 271.1 30.1361 271.554 30.8428C272.007 31.5561 272.247 32.4061 272.274 33.3928C272.247 34.4594 272.014 35.3394 271.574 36.0328C271.127 36.7328 270.557 37.2894 269.864 37.7028C269.164 38.1228 268.41 38.4161 267.604 38.5828C266.79 38.7428 266.03 38.8228 265.324 38.8228C264.41 38.8228 263.467 38.7728 262.494 38.6728C261.514 38.5728 260.467 38.3594 259.354 38.0328L259.924 35.2928C261.064 35.5994 262.104 35.8194 263.044 35.9528C263.977 36.0928 264.75 36.1628 265.364 36.1628C265.817 36.1628 266.264 36.1128 266.704 36.0128C267.15 35.9128 267.55 35.7694 267.904 35.5828C268.257 35.3894 268.544 35.1394 268.764 34.8328C268.977 34.5328 269.084 34.1928 269.084 33.8128C269.057 33.0994 268.817 32.4961 268.364 32.0028C267.904 31.5094 267.314 31.0661 266.594 30.6728C265.874 30.2794 265.1 29.8894 264.274 29.5028C263.454 29.1094 262.68 28.6528 261.954 28.1328C261.234 27.6128 260.634 26.9928 260.154 26.2728C259.674 25.5461 259.434 24.6528 259.434 23.5928C259.434 22.8328 259.63 22.1528 260.024 21.5528C260.417 20.9594 260.924 20.4661 261.544 20.0728C262.164 19.6794 262.847 19.3761 263.594 19.1628C264.34 18.9494 265.067 18.8428 265.774 18.8428C266.514 18.8428 267.337 18.8994 268.244 19.0128C269.157 19.1261 270.21 19.3328 271.404 19.6328Z" fill="#10B1E7" fill-opacity="0.8"/>
</svg>
