<svg width="500" height="500" viewBox="0 0 500 500" fill="none" xmlns="http://www.w3.org/2000/svg">
<path d="M213.067 64C132.867 64 68 128.867 68 209.067C68 289.267 132.867 354.133 213.067 354.133C241.7 354.133 268.2 345.733 290.667 331.467L395.467 436.267L431.733 400L328.267 296.8C346.867 272.4 358.133 242.167 358.133 209.067C358.133 128.867 293.267 64 213.067 64ZM213.067 98.1333C274.5 98.1333 324 147.633 324 209.067C324 270.5 274.5 320 213.067 320C151.633 320 102.133 270.5 102.133 209.067C102.133 147.633 151.633 98.1333 213.067 98.1333Z" fill="#1394BF"/>
</svg>
