<svg width="51" height="50" viewBox="0 0 51 50" fill="none" xmlns="http://www.w3.org/2000/svg">
<path d="M49.2321 32.2667C49.3494 32.2667 49.4655 32.2436 49.5739 32.1988C49.6822 32.1539 49.7806 32.0882 49.8636 32.0052C49.9465 31.9223 50.0122 31.8239 50.0571 31.7155C50.102 31.6072 50.125 31.4911 50.125 31.3738V7.0435C50.125 6.92624 50.102 6.81012 50.0571 6.70178C50.0122 6.59344 49.9465 6.495 49.8636 6.41208C49.7806 6.32917 49.6822 6.2634 49.5739 6.21854C49.4655 6.17368 49.3494 6.15061 49.2321 6.15064H29.5357V2.92798C29.5337 2.64646 29.4712 2.36865 29.3524 2.11343C29.2336 1.8582 29.0612 1.63154 28.847 1.44883C28.6328 1.26612 28.3818 1.13164 28.1111 1.05453C27.8403 0.977417 27.5561 0.959475 27.2778 1.00192L1.76297 5.09909C1.30439 5.1708 0.886799 5.40478 0.586193 5.75843C0.285587 6.11209 0.121945 6.56192 0.125048 7.02606V42.9722C0.121777 43.4361 0.285156 43.8856 0.585448 44.2391C0.88574 44.5926 1.30298 44.8266 1.76123 44.8983L6.18061 45.6037C6.41289 45.6377 6.64921 45.5788 6.8384 45.4398C7.0276 45.3009 7.15444 45.093 7.19147 44.8611C7.22849 44.6293 7.17272 44.3922 7.03623 44.2012C6.89974 44.0103 6.69352 43.8807 6.4622 43.8406L2.04112 43.1344C1.78952 42.943 1.78788 7.04817 2.04307 6.86308C2.21064 6.93017 27.5655 2.6238 27.6939 2.8041C27.7119 2.81924 27.7263 2.83823 27.736 2.85967C27.7457 2.8811 27.7505 2.90444 27.75 2.92796V7.04347C27.5642 9.54142 28.1083 46.0983 27.5613 47.233L10.0341 44.4214C9.80202 44.3877 9.56602 44.4467 9.37709 44.5857C9.18816 44.7246 9.06146 44.9322 9.02436 45.1638C8.98726 45.3953 9.04275 45.6322 9.17884 45.8231C9.31492 46.0141 9.52067 46.1439 9.75165 46.1844L27.2844 48.9973C27.5626 49.0408 27.8469 49.0236 28.1178 48.9467C28.3887 48.8699 28.6398 48.7353 28.8537 48.5522C29.0677 48.3691 29.2394 48.1418 29.3571 47.886C29.4748 47.6302 29.5358 47.3519 29.5357 47.0703V43.8477H49.2321C49.3494 43.8477 49.4655 43.8246 49.5739 43.7798C49.6822 43.7349 49.7806 43.6691 49.8636 43.5862C49.9465 43.5033 50.0122 43.4049 50.0571 43.2965C50.102 43.1882 50.125 43.0721 50.125 42.9548V34.9453C50.1208 34.7112 50.0249 34.4882 49.8579 34.3242C49.6909 34.1601 49.4662 34.0682 49.2321 34.0682C48.9981 34.0682 48.7734 34.1601 48.6064 34.3242C48.4394 34.4882 48.3435 34.7112 48.3393 34.9453V42.0619H29.5357V7.93635H48.3393V31.3738C48.3393 31.4911 48.3623 31.6072 48.4072 31.7155C48.452 31.8239 48.5178 31.9223 48.6007 32.0052C48.6836 32.0882 48.7821 32.1539 48.8904 32.1988C48.9988 32.2436 49.1149 32.2667 49.2321 32.2667Z" fill="#10B1E7"/>
<path d="M9.68619 33.5493C9.83687 33.5496 9.98515 33.5116 10.1172 33.439C10.2492 33.3665 10.3607 33.2616 10.4413 33.1343L14.8068 26.2466L19.515 33.6749C19.6424 33.8734 19.8432 34.0134 20.0735 34.0644C20.3039 34.1153 20.545 34.0731 20.7442 33.9468C20.9435 33.8206 21.0847 33.6206 21.137 33.3906C21.1894 33.1606 21.1485 32.9192 21.0235 32.7192L15.8638 24.5788L20.8425 16.7237C20.965 16.5237 21.004 16.2836 20.9509 16.0552C20.8979 15.8268 20.7571 15.6284 20.559 15.5029C20.3609 15.3774 20.1214 15.3349 19.8922 15.3845C19.663 15.4341 19.4625 15.5719 19.3341 15.7681L14.8068 22.9111L10.6418 16.34C10.5134 16.1439 10.3129 16.0061 10.0837 15.9565C9.8545 15.9068 9.61499 15.9494 9.41689 16.0749C9.2188 16.2004 9.07803 16.3988 9.02499 16.6272C8.97194 16.8556 9.01089 17.0958 9.13342 17.2957L13.7497 24.5788L8.93284 32.1786C8.84929 32.314 8.80314 32.469 8.79912 32.628C8.79509 32.787 8.83333 32.9442 8.90994 33.0836C8.98654 33.223 9.09876 33.3395 9.23514 33.4213C9.37152 33.5032 9.52717 33.5473 9.68619 33.5493Z" fill="#10B1E7"/>
<path d="M42.8921 15.9309C42.6575 15.9342 42.4336 16.0297 42.2689 16.1968C42.1041 16.3639 42.0118 16.5891 42.0118 16.8237C42.0118 17.0584 42.1041 17.2836 42.2689 17.4507C42.4336 17.6177 42.6575 17.7133 42.8921 17.7166H45.9368C46.0541 17.7166 46.1702 17.6935 46.2786 17.6487C46.3869 17.6038 46.4853 17.5381 46.5683 17.4551C46.6512 17.3722 46.7169 17.2738 46.7618 17.1654C46.8067 17.0571 46.8297 16.941 46.8297 16.8237V12.5286C46.8297 12.4113 46.8067 12.2952 46.7618 12.1869C46.7169 12.0785 46.6512 11.9801 46.5683 11.8972C46.4853 11.8143 46.3869 11.7485 46.2786 11.7036C46.1702 11.6588 46.0541 11.6357 45.9368 11.6357H31.928C31.8108 11.6357 31.6946 11.6588 31.5863 11.7036C31.478 11.7485 31.3795 11.8143 31.2966 11.8972C31.2137 11.9801 31.1479 12.0785 31.1031 12.1869C31.0582 12.2952 31.0351 12.4113 31.0352 12.5286V16.8237C31.0351 16.941 31.0582 17.0571 31.1031 17.1654C31.1479 17.2738 31.2137 17.3722 31.2966 17.4551C31.3795 17.5381 31.478 17.6038 31.5863 17.6487C31.6946 17.6935 31.8108 17.7166 31.928 17.7166H39.3207C39.5553 17.7133 39.7792 17.6177 39.9439 17.4507C40.1086 17.2836 40.201 17.0584 40.201 16.8237C40.201 16.5891 40.1086 16.3639 39.9439 16.1968C39.7792 16.0297 39.5553 15.9342 39.3207 15.9309H32.8209V13.4215H45.044V15.9309H42.8921Z" fill="#10B1E7"/>
<path d="M46.8334 19.4095C46.8334 19.2922 46.8104 19.1761 46.7655 19.0677C46.7207 18.9594 46.6549 18.861 46.572 18.778C46.4891 18.6951 46.3906 18.6294 46.2823 18.5845C46.1739 18.5396 46.0578 18.5166 45.9406 18.5166H31.9339C31.8166 18.5166 31.7005 18.5396 31.5922 18.5845C31.4838 18.6294 31.3854 18.6951 31.3025 18.778C31.2195 18.861 31.1538 18.9594 31.1089 19.0677C31.0641 19.1761 31.041 19.2922 31.041 19.4095V23.7063C31.041 23.8236 31.0641 23.9397 31.1089 24.048C31.1538 24.1564 31.2195 24.2548 31.3025 24.3377C31.3854 24.4207 31.4838 24.4864 31.5922 24.5313C31.7005 24.5761 31.8166 24.5992 31.9339 24.5992H45.9406C46.0578 24.5992 46.1739 24.5761 46.2823 24.5313C46.3906 24.4864 46.4891 24.4207 46.572 24.3377C46.6549 24.2548 46.7207 24.1564 46.7655 24.048C46.8104 23.9397 46.8334 23.8236 46.8334 23.7063V19.4095ZM45.0477 22.8135H32.8267V20.3023H45.0477V22.8135Z" fill="#10B1E7"/>
<path d="M46.8334 26.2942C46.8334 26.177 46.8104 26.0608 46.7655 25.9525C46.7207 25.8442 46.6549 25.7457 46.572 25.6628C46.4891 25.5799 46.3906 25.5141 46.2823 25.4693C46.1739 25.4244 46.0578 25.4013 45.9406 25.4014H31.9339C31.8166 25.4013 31.7005 25.4244 31.5922 25.4693C31.4838 25.5141 31.3854 25.5799 31.3025 25.6628C31.2195 25.7457 31.1538 25.8442 31.1089 25.9525C31.0641 26.0608 31.041 26.177 31.041 26.2942V30.5911C31.041 30.7084 31.0641 30.8245 31.1089 30.9328C31.1538 31.0412 31.2195 31.1396 31.3025 31.2225C31.3854 31.3054 31.4838 31.3712 31.5922 31.416C31.7005 31.4609 31.8166 31.484 31.9339 31.484H45.9406C46.0578 31.484 46.1739 31.4609 46.2823 31.416C46.3906 31.3712 46.4891 31.3054 46.572 31.2225C46.6549 31.1396 46.7207 31.0412 46.7655 30.9328C46.8104 30.8245 46.8334 30.7084 46.8334 30.5911V26.2942ZM45.0477 29.6982H32.8267V27.1871H45.0477V29.6982Z" fill="#10B1E7"/>
<path d="M31.9339 38.3687H45.9406C46.0578 38.3687 46.1739 38.3457 46.2823 38.3008C46.3906 38.256 46.4891 38.1902 46.572 38.1073C46.6549 38.0244 46.7207 37.9259 46.7655 37.8176C46.8104 37.7092 46.8334 37.5931 46.8334 37.4759V33.179C46.8334 33.0617 46.8104 32.9456 46.7655 32.8373C46.7207 32.7289 46.6549 32.6305 46.572 32.5476C46.4891 32.4647 46.3906 32.3989 46.2823 32.354C46.1739 32.3092 46.0578 32.2861 45.9406 32.2861H31.9339C31.8166 32.2861 31.7005 32.3092 31.5922 32.354C31.4838 32.3989 31.3854 32.4647 31.3025 32.5476C31.2195 32.6305 31.1538 32.7289 31.1089 32.8373C31.0641 32.9456 31.041 33.0617 31.041 33.179V37.4759C31.041 37.5931 31.0641 37.7092 31.1089 37.8176C31.1538 37.9259 31.2195 38.0244 31.3025 38.1073C31.3854 38.1902 31.4838 38.256 31.5922 38.3008C31.7005 38.3457 31.8166 38.3687 31.9339 38.3687ZM32.8267 34.0718H45.0477V36.583H32.8267V34.0718Z" fill="#10B1E7"/>
</svg>
