<svg width="24" height="24" viewBox="0 0 24 24" fill="none" xmlns="http://www.w3.org/2000/svg">
<path opacity="0.25" d="M12 1C9.82441 1 7.69767 1.64514 5.88873 2.85383C4.07979 4.06253 2.66989 5.78049 1.83733 7.79048C1.00477 9.80047 0.786929 12.0122 1.21137 14.146C1.6358 16.2798 2.68345 18.2398 4.22183 19.7782C5.76021 21.3166 7.72022 22.3642 9.85401 22.7886C11.9878 23.2131 14.1995 22.9952 16.2095 22.1627C18.2195 21.3301 19.9375 19.9202 21.1462 18.1113C22.3549 16.3023 23 14.1756 23 12C23 9.08262 21.8411 6.28473 19.7782 4.22183C17.7153 2.15893 14.9174 1 12 1ZM12 20C10.4178 20 8.87104 19.5308 7.55544 18.6518C6.23985 17.7727 5.21447 16.5233 4.60897 15.0615C4.00347 13.5997 3.84504 11.9911 4.15372 10.4393C4.4624 8.88743 5.22433 7.46197 6.34315 6.34315C7.46197 5.22433 8.88743 4.4624 10.4393 4.15372C11.9911 3.84504 13.5997 4.00346 15.0615 4.60896C16.5233 5.21447 17.7727 6.23984 18.6518 7.55544C19.5308 8.87103 20 10.4177 20 12C20 14.1217 19.1572 16.1566 17.6569 17.6569C16.1566 19.1571 14.1217 20 12 20Z" fill="#10B1E7"/>
<path d="M10.1399 1.15984C7.90307 1.53721 5.83762 2.59689 4.22646 4.19374C2.61529 5.79058 1.53721 7.84648 1.13988 10.0798C1.09216 10.2932 1.08898 10.5142 1.13052 10.7289C1.17207 10.9436 1.25745 11.1474 1.38134 11.3276C1.50522 11.5078 1.66494 11.6605 1.85052 11.7762C2.0361 11.8918 2.24354 11.968 2.45988 11.9998C2.84936 12.0372 3.23824 11.9229 3.54558 11.6807C3.85291 11.4386 4.05504 11.0872 4.10988 10.6998C4.38246 9.03707 5.17308 7.50282 6.36901 6.31587C7.56494 5.12892 9.10511 4.34988 10.7699 4.08984C11.1093 4.04402 11.4206 3.8771 11.6467 3.61984C11.8727 3.36257 11.9981 3.03229 11.9999 2.68984C11.998 2.46019 11.9457 2.23375 11.8468 2.0265C11.7479 1.81924 11.6047 1.63621 11.4273 1.49032C11.2499 1.34442 11.0427 1.23922 10.8203 1.18212C10.5978 1.12501 10.3656 1.11741 10.1399 1.15984Z" fill="#434343"/>
</svg>
